<svg id="Layer_1" enable-background="new 0 0 150 150" height="512" viewBox="0 0 150 150" width="512" xmlns="http://www.w3.org/2000/svg"><g><g fill="#89c5cd"><path d="m69.898 78.022c-10.153-.092-15.468-17.771-15.36-34.376.123-13.824 3.748-25.974 9.216-31.166 4.639-4.537 10.917-7.002 17.403-6.835h.261c16.543.154 19.968 7.434 19.968 13.502 0 5.207-3.533 9.539-6.897 13.747-.952 1.183-1.92 2.396-2.796 3.594-6.697 9.216-9.708 19.569-11.889 27.095-2.458 8.387-4.224 14.439-9.846 14.439z"/><path d="m54.046 85.303c-7.071-.139-14.075-1.399-20.752-3.733-13.056-4.362-23.547-11.581-26.803-18.432-2.921-5.894-3.298-12.728-1.045-18.908 3.517-10.245 8.433-15.36 14.838-15.36 1.417.01 2.822.249 4.163.707 4.915 1.644 7.972 6.298 10.936 10.752.829 1.26 1.674 2.565 2.55 3.763 6.743 9.216 15.606 15.36 22.088 19.692 6.974 4.746 12.488 8.494 10.752 13.824-1.72 5.022-7.634 7.695-16.727 7.695z"/><path d="m36.198 132.228c-5.34-.118-10.504-1.93-14.746-5.176-13.317-9.846-11.797-17.741-8.172-22.626 3.072-4.178 8.463-5.653 13.655-7.066 1.459-.399 2.965-.814 4.362-1.275 10.875-3.548 19.354-10.122 25.544-14.915 5.315-4.117 9.216-7.081 12.81-7.081 1.327-.016 2.622.405 3.686 1.198 8.156 6.037 2.074 23.47-7.803 36.864-8.187 11.013-18.294 18.77-25.851 19.738-1.168.231-2.357.344-3.548.338h.063z"/><path d="m90.957 144.255c-3.867.012-7.48-1.922-9.615-5.146-3.072-4.224-2.749-9.784-2.488-15.16 0-1.536.138-3.072.138-4.608 0-11.428-3.64-21.504-6.298-28.892-2.857-7.957-5.115-14.224-.492-17.511 1.565-1.059 3.425-1.597 5.315-1.536 7.68 0 18.432 8.018 27.28 20.398 7.987 11.213 12.288 23.225 10.86 30.72-1.096 6.486-4.805 12.238-10.261 15.913-5.591 3.994-10.307 5.929-14.423 5.929z"/><path d="m133.612 86.685c-3.763 0-7.68-1.536-11.367-2.872-1.413-.538-2.872-1.091-4.285-1.536-7.249-2.182-14.795-3.218-22.364-3.072-2.519 0-4.931 0-7.066.138-1.905 0-3.656.123-5.222.123-3.502 0-9.999 0-11.582-5.053-1.413-4.47 1.075-9.631 7.004-14.5 6.249-4.855 13.349-8.502 20.936-10.752 6.449-2.12 13.18-3.259 19.968-3.379 4.31-.182 8.6.683 12.503 2.519 5.845 3.048 10.182 8.362 11.996 14.7 4.977 15.79-.891 21.289-6.697 23.04-1.239.381-2.528.573-3.825.568v.076z"/></g><circle cx="75.013" cy="74.95" fill="#e1e6e9" r="19.369"/><circle cx="75.013" cy="74.95" fill="#d5d6db" r="15.452"/></g></svg>